<?xml version="1.0" encoding="utf-8"?>
<!-- Generator: Adobe Illustrator 18.1.1, SVG Export Plug-In . SVG Version: 6.00 Build 0)  -->
<!DOCTYPE svg PUBLIC "-//W3C//DTD SVG 1.1//EN" "http://www.w3.org/Graphics/SVG/1.1/DTD/svg11.dtd">
<svg version="1.1" id="Layer_1" xmlns="http://www.w3.org/2000/svg" xmlns:xlink="http://www.w3.org/1999/xlink" x="0px" y="0px"
	 viewBox="0 0 100 99" enable-background="new 0 0 100 99" xml:space="preserve">
<g>
	<path fill="#0091CA" d="M96.3,74.2c-7.9,16-29.7,17.6-45.4,17.6c-15.9,0-39-1.4-47.2-17.6C0.7,68.1,0,61,0,54.3
		c0-8.8,2.4-17.1,8.2-23.8c-1.1-3.3-1.6-6.8-1.6-10.2c0-4.5,1-9,3.1-13.1c9.5,0,15.6,4.1,22.8,9.8c6.1-1.4,12.3-2.1,18.6-2.1
		c5.6,0,11.4,0.6,16.8,1.9c7.2-5.6,13.2-9.6,22.6-9.6c2,4.1,3.1,8.6,3.1,13.1c0,3.4-0.5,6.9-1.6,10.1c5.8,6.8,8.2,15.1,8.2,23.9
		C100,61,99.3,68.1,96.3,74.2z M71.2,47.6c-4,0-7.8,0.7-11.7,1.3c-3.1,0.5-6.2,0.7-9.4,0.7s-6.3-0.2-9.4-0.7
		c-3.9-0.5-7.8-1.3-11.7-1.3c-9.8,0-15.4,8.1-15.4,17.3c0,18.4,16.8,21.2,31.5,21.2H55c14.7,0,31.5-2.8,31.5-21.2
		C86.5,55.7,80.9,47.6,71.2,47.6z M30.8,76.4c-5.4,0-7.7-7.2-7.7-11.5c0-4.4,2.3-11.5,7.7-11.5s7.7,7.2,7.7,11.5
		C38.5,69.3,36.2,76.4,30.8,76.4z M69.2,76.4c-5.4,0-7.7-7.2-7.7-11.5c0-4.4,2.3-11.5,7.7-11.5c5.4,0,7.7,7.2,7.7,11.5
		C76.9,69.3,74.6,76.4,69.2,76.4z"/>
</g>
</svg>
