<?xml version="1.0" encoding="utf-8"?>
<!-- Generator: Adobe Illustrator 18.0.0, SVG Export Plug-In . SVG Version: 6.00 Build 0)  -->
<!DOCTYPE svg PUBLIC "-//W3C//DTD SVG 1.1//EN" "http://www.w3.org/Graphics/SVG/1.1/DTD/svg11.dtd">
<svg version="1.1" id="Layer_1" xmlns="http://www.w3.org/2000/svg" xmlns:xlink="http://www.w3.org/1999/xlink" x="0px" y="0px"
	 viewBox="0 0 24.6 24" enable-background="new 0 0 24.6 24" xml:space="preserve">
<path fill-rule="evenodd" clip-rule="evenodd" fill="#0091CA" d="M12.3,0C5.5,0,0,5.5,0,12.3c0,5.4,3.5,10,8.4,11.7
	c0.6,0.1,0.8-0.3,0.8-0.6c0-0.3,0-1.1,0-2.1c-3.4,0.7-4.1-1.6-4.1-1.6c-0.6-1.4-1.4-1.8-1.4-1.8c-1.1-0.8,0.1-0.7,0.1-0.7
	c1.2,0.1,1.9,1.3,1.9,1.3c1.1,1.9,2.9,1.3,3.6,1c0.1-0.8,0.4-1.3,0.8-1.6c-2.7-0.3-5.6-1.4-5.6-6.1c0-1.3,0.5-2.4,1.3-3.3
	C5.6,8,5.2,6.8,5.8,5.1c0,0,1-0.3,3.4,1.3c1-0.3,2-0.4,3.1-0.4c1,0,2.1,0.1,3.1,0.4c2.3-1.6,3.4-1.3,3.4-1.3C19.4,6.8,19,8,18.9,8.4
	c0.8,0.9,1.3,2,1.3,3.3c0,4.7-2.9,5.8-5.6,6.1c0.4,0.4,0.8,1.1,0.8,2.3c0,1.6,0,3,0,3.4c0,0.3,0.2,0.7,0.8,0.6
	c4.9-1.6,8.4-6.2,8.4-11.7C24.6,5.5,19.1,0,12.3,0z"/>
</svg>
