<?xml version="1.0" encoding="utf-8"?>
<!-- Generator: Adobe Illustrator 18.0.0, SVG Export Plug-In . SVG Version: 6.00 Build 0)  -->
<!DOCTYPE svg PUBLIC "-//W3C//DTD SVG 1.1//EN" "http://www.w3.org/Graphics/SVG/1.1/DTD/svg11.dtd">
<svg version="1.1" id="Layer_1" xmlns="http://www.w3.org/2000/svg" xmlns:xlink="http://www.w3.org/1999/xlink" x="0px" y="0px"
	 viewBox="291.4 384 29.3 24" enable-background="new 291.4 384 29.3 24" xml:space="preserve">
<path fill="#0091C9" d="M320.6,386.8c-1.1,0.5-2.3,0.8-3.5,1c1.3-0.7,2.2-1.9,2.7-3.4c-1.2,0.7-2.5,1.2-3.8,1.5
	c-1.1-1.2-2.7-1.9-4.5-1.9c-3.3,0-6.1,2.7-6.1,6.1c0,0.5,0.1,0.9,0.2,1.4c-5-0.3-9.5-2.7-12.4-6.4c-0.6,0.9-0.9,1.9-0.9,3.1
	c0,2.1,1.1,4,2.7,5c-1,0-1.9-0.3-2.7-0.8v0.1c0,2.9,2.1,5.4,4.9,5.9c-0.5,0.1-1,0.2-1.6,0.2c-0.4,0-0.8,0-1.1-0.1
	c0.8,2.4,3,4.2,5.7,4.2c-2.1,1.6-4.7,2.6-7.5,2.6c-0.5,0-1,0-1.4-0.1c2.5,1.8,5.7,2.8,9.1,2.8c11.1,0,17.2-9.2,17.2-17.2
	c0-0.3,0-0.5,0-0.8C318.9,389.1,319.9,388.1,320.6,386.8z"/>
</svg>
